<?xml version="1.0" encoding="UTF-8" standalone="no"?>
<!-- Created with Inkscape (http://www.inkscape.org/) -->

<svg
   version="1.1"
   id="svg1"
   width="275"
   height="183"
   viewBox="0 0 275 183"
   sodipodi:docname="Logo_final.svg"
   inkscape:version="1.3.2 (091e20e, 2023-11-25)"
   xmlns:inkscape="http://www.inkscape.org/namespaces/inkscape"
   xmlns:sodipodi="http://sodipodi.sourceforge.net/DTD/sodipodi-0.dtd"
   xmlns="http://www.w3.org/2000/svg"
   xmlns:svg="http://www.w3.org/2000/svg">
  <defs
     id="defs1" />
  <sodipodi:namedview
     id="namedview1"
     pagecolor="#ffffff"
     bordercolor="#999999"
     borderopacity="1"
     inkscape:showpageshadow="2"
     inkscape:pageopacity="0"
     inkscape:pagecheckerboard="0"
     inkscape:deskcolor="#d1d1d1"
     inkscape:zoom="2.3978948"
     inkscape:cx="137.82923"
     inkscape:cy="91.538628"
     inkscape:window-width="1392"
     inkscape:window-height="1138"
     inkscape:window-x="931"
     inkscape:window-y="31"
     inkscape:window-maximized="0"
     inkscape:current-layer="g1" />
  <g
     inkscape:groupmode="layer"
     inkscape:label="Image"
     id="g1">
    <path
       id="path1"
       style="fill:#000000"
       d="M 133.06836 44.492188 C 123.29864 44.459718 111.20924 48.560404 106.84961 53.384766 C 104.16528 56.35524 103.52958 65.145924 105.69531 69.333984 C 107.2845 72.407118 107.25779 72.62755 104.91992 75.746094 C 101.47538 80.340864 98.550446 86.465016 97.742188 90.773438 C 97.071648 94.34772 96.899763 94.476562 92.839844 94.476562 L 88.632812 94.476562 L 87.529297 86.220703 C 86.921783 81.680203 85.457503 75.380187 84.275391 72.220703 L 82.125 66.476562 L 75.806641 66.476562 L 69.486328 66.476562 L 67.931641 70.363281 C 64.52489 78.877585 62.972163 90.413367 63.548828 102.92969 C 64.155333 116.09359 63.060078 116.55162 61.322266 103.85938 C 60.274119 96.204133 61.14853 80.560841 62.876953 76.056641 C 63.359056 74.800303 62.759065 74.476562 59.947266 74.476562 C 56.517052 74.476562 56.358162 74.648634 54.619141 80.226562 C 53.318112 84.399624 52.817405 89.317028 52.796875 98.15625 C 52.778332 106.13939 52.450839 109.76718 51.845703 108.68555 C 50.701276 106.63998 50.504484 91.742672 51.53125 84.896484 C 52.258366 80.048274 52.189733 79.819484 50.03125 79.896484 C 45.168019 80.069964 42.812306 95.827609 45.705078 108.83008 L 47.40625 116.47656 L 51.228516 116.47656 C 54.472792 116.47656 55.147264 116.85522 55.679688 118.97656 C 56.241576 121.21531 56.816493 121.47656 61.179688 121.47656 C 65.930694 121.47656 66.091726 121.5762 67.652344 125.47656 C 69.181378 129.298 69.449771 129.47656 73.669922 129.47656 L 78.087891 129.47656 L 76.287109 125.72656 C 71.160291 115.05619 70.910983 81.082376 75.888672 71.291016 C 78.248012 66.650074 79.013982 67.344912 77.509766 72.763672 C 74.243856 84.528718 74.863679 119.1007 78.482422 127.04297 C 81.220824 133.0531 85.327511 125.66678 87.371094 111.05859 L 88.572266 102.47656 L 92.822266 102.47656 L 97.070312 102.47656 L 98.269531 107.47656 C 99.722266 113.53229 105.78969 123.12365 110.17773 126.30078 C 111.94232 127.57842 115.72266 129.71153 118.57812 131.04102 C 121.4336 132.3705 123.99453 133.45984 124.26953 133.46484 C 124.54453 133.46934 124.91231 126.99761 125.08789 119.08203 L 125.4082 104.68945 L 121.08789 103.25586 C 117.14718 101.9478 116.74215 101.50122 116.45898 98.150391 C 116.28828 96.130405 116.33503 94.476562 116.5625 94.476562 C 116.78996 94.476562 120.07828 95.601566 123.86914 96.976562 C 127.66 98.35156 130.84783 99.476562 130.95312 99.476562 C 131.05842 99.476563 130.89781 100.99029 130.59766 102.83984 C 130.29673 104.69425 130.60906 107.24163 131.29297 108.51953 C 132.50311 110.7807 132.5666 110.79161 133.94531 108.9082 C 134.87709 107.63533 135.15154 105.74799 134.75 103.36719 L 134.14062 99.755859 L 141.26172 97.117188 C 145.17853 95.66536 148.60998 94.476562 148.88672 94.476562 C 149.16341 94.476563 149.25078 96.130405 149.08008 98.150391 C 148.80114 101.45111 148.3644 101.9568 144.76953 103.14844 L 140.76953 104.47461 L 141.04492 115.72656 C 141.19612 121.91481 141.42112 128.44184 141.54492 130.23242 L 141.76953 133.48828 L 147.76953 130.63672 C 151.06953 129.0686 155.21296 126.56883 156.97656 125.08008 C 160.98209 121.69882 165.74727 113.46828 167.31445 107.22656 C 168.49984 102.50548 168.5327 102.47656 172.69727 102.47656 L 176.88672 102.47656 L 178.1582 111.22656 C 180.33909 126.23966 184.25288 133.19653 187.05664 127.04297 C 190.74704 118.94345 191.33383 82.897553 187.94922 72.171875 C 186.74474 68.354923 186.70828 67.597137 187.77734 68.484375 C 194.20296 73.817155 195.27001 114.20602 189.29492 125.92578 L 187.48438 129.47656 L 191.88477 129.47656 C 196.1065 129.47656 196.35173 129.30896 197.93359 125.35547 L 199.58398 121.23633 L 204.35938 121.80078 C 209.00565 122.35106 209.15198 122.28692 209.78125 119.42188 C 210.36072 116.78357 210.82999 116.47656 214.28125 116.47656 L 218.13281 116.47656 L 219.83398 108.83008 C 222.72129 95.852179 220.59343 81.153875 215.69141 80.216797 C 213.26777 79.753487 213.24729 79.814571 214.00391 84.863281 C 214.9945 91.473319 214.76057 106.77788 213.63867 108.7832 C 213.10898 109.72999 212.76672 105.5804 212.76172 98.15625 C 212.75619 89.353728 212.26381 84.382294 210.98438 80.226562 C 209.26053 74.627364 209.11994 74.476563 205.63477 74.476562 C 202.73767 74.476562 202.17544 74.788274 202.68164 76.107422 C 204.47744 80.787192 205.40417 97.749017 204.24609 104.7207 C 202.32299 116.298 201.34627 115.89429 201.97852 103.78516 C 202.6247 91.408735 201.27033 80.244796 198.08789 71.726562 L 196.125 66.476562 L 189.76953 66.476562 L 183.41406 66.476562 L 181.33594 72.027344 C 180.19394 75.079598 178.70064 81.267112 178.01562 85.777344 L 176.76953 93.976562 L 172.64062 94.279297 C 168.63369 94.571967 168.49228 94.477248 167.85352 91.072266 C 166.93254 86.163046 163.67816 79.115593 160.69336 75.568359 C 158.29516 72.718275 158.24592 72.423024 159.70898 69.59375 C 162.0472 65.07214 161.99153 57.928121 159.59375 54.685547 C 155.51842 49.174387 143.42586 44.526586 133.06836 44.492188 z M 133.09766 52.90625 C 138.81313 52.890004 144.59377 53.755764 148.61914 55.589844 C 152.36235 57.29535 153.81964 60.733162 152.32812 64.333984 L 151.10352 67.291016 L 146.67578 65.332031 C 141.91017 63.223965 140.26953 63.513777 140.26953 66.462891 C 140.26953 67.738697 141.93326 69.106536 145.51953 70.777344 C 151.95982 73.777828 156.60428 78.28755 160.0918 84.929688 C 162.35496 89.240068 162.74219 91.217838 162.74219 98.476562 C 162.74219 105.76521 162.35821 107.70639 160.05273 112.09961 C 157.48318 116.99606 149.16131 125.47656 146.92578 125.47656 C 146.3416 125.47656 147.42071 123.78906 149.32422 121.72656 L 152.78516 117.97656 L 152.73047 104.97656 C 152.66481 89.192413 151.59289 85.447682 145.9707 81.375 C 142.75983 79.049054 141.2349 78.54509 138.94141 79.048828 L 136.01367 79.691406 L 136.54297 73.833984 C 137.12359 67.402508 137.79438 64.056084 138.8418 62.361328 C 139.21845 61.75191 138.9064 60.860939 138.14844 60.380859 C 136.66889 59.443731 127.94127 59.136858 127.08594 59.992188 C 126.80213 60.275996 127.17778 62.849892 127.91992 65.710938 C 128.66207 68.571982 129.26953 72.88798 129.26953 75.302734 C 129.26953 79.542196 129.17897 79.671256 126.64453 79.035156 C 124.73187 78.555108 122.97551 79.066509 120.17188 80.921875 C 113.74106 85.177577 112.84084 87.973615 112.74414 103.97656 L 112.66016 117.97656 L 116.16797 121.72656 C 119.88572 125.70095 119.97314 126.07848 116.76953 124.31445 C 112.88698 122.17659 108.059 116.91792 105.44336 111.97656 C 103.18086 107.70236 102.79688 105.74273 102.79688 98.476562 C 102.79687 91.206678 103.18114 89.252954 105.44727 84.976562 C 108.83766 78.578536 114.49347 73.139733 120.51953 70.480469 C 125.2412 68.396833 126.02112 67.211541 124.38086 64.623047 C 123.67732 63.512799 122.71441 63.628842 119.00977 65.267578 L 114.49414 67.265625 L 113.38086 64.824219 C 111.69728 61.129175 111.99845 59.881675 115.23047 57.162109 C 118.50598 54.405955 125.74917 52.927137 133.09766 52.90625 z " />
  </g>
</svg>
